<mxfile host="app.diagrams.net" modified="2021-11-24T00:43:45.171Z" agent="5.0 (Macintosh; Intel Mac OS X 10_13_6) AppleWebKit/537.36 (KHTML, like Gecko) Chrome/95.0.4638.69 Safari/537.36" etag="Dst8dir28GMsYrpPE8w3" version="15.8.2" type="github">
  <diagram id="np436Q3QIbkTWLlRMBf1" name="Page-1">
    <mxGraphModel dx="1205" dy="694" grid="1" gridSize="10" guides="1" tooltips="1" connect="1" arrows="1" fold="1" page="1" pageScale="1" pageWidth="827" pageHeight="1169" math="0" shadow="0">
      <root>
        <mxCell id="0" />
        <mxCell id="1" parent="0" />
        <mxCell id="x9-YvS9UbByvEua8BKdK-4" style="edgeStyle=orthogonalEdgeStyle;rounded=0;orthogonalLoop=1;jettySize=auto;html=1;" edge="1" parent="1" source="x9-YvS9UbByvEua8BKdK-1" target="x9-YvS9UbByvEua8BKdK-3">
          <mxGeometry relative="1" as="geometry" />
        </mxCell>
        <mxCell id="x9-YvS9UbByvEua8BKdK-15" style="edgeStyle=orthogonalEdgeStyle;rounded=0;orthogonalLoop=1;jettySize=auto;html=1;" edge="1" parent="1" source="x9-YvS9UbByvEua8BKdK-1" target="x9-YvS9UbByvEua8BKdK-13">
          <mxGeometry relative="1" as="geometry">
            <Array as="points">
              <mxPoint x="129" y="159" />
            </Array>
          </mxGeometry>
        </mxCell>
        <mxCell id="x9-YvS9UbByvEua8BKdK-1" value="" style="sketch=0;points=[[0,0,0],[0.25,0,0],[0.5,0,0],[0.75,0,0],[1,0,0],[0,1,0],[0.25,1,0],[0.5,1,0],[0.75,1,0],[1,1,0],[0,0.25,0],[0,0.5,0],[0,0.75,0],[1,0.25,0],[1,0.5,0],[1,0.75,0]];outlineConnect=0;fontColor=#232F3E;gradientColor=#60A337;gradientDirection=north;fillColor=#277116;strokeColor=#ffffff;dashed=0;verticalLabelPosition=bottom;verticalAlign=top;align=center;html=1;fontSize=12;fontStyle=0;aspect=fixed;shape=mxgraph.aws4.resourceIcon;resIcon=mxgraph.aws4.s3;" vertex="1" parent="1">
          <mxGeometry x="90" y="280" width="78" height="78" as="geometry" />
        </mxCell>
        <mxCell id="x9-YvS9UbByvEua8BKdK-2" value="Data Source" style="text;html=1;strokeColor=none;fillColor=none;align=center;verticalAlign=middle;whiteSpace=wrap;rounded=0;" vertex="1" parent="1">
          <mxGeometry x="99" y="370" width="60" height="30" as="geometry" />
        </mxCell>
        <mxCell id="x9-YvS9UbByvEua8BKdK-7" style="edgeStyle=orthogonalEdgeStyle;rounded=0;orthogonalLoop=1;jettySize=auto;html=1;" edge="1" parent="1" source="x9-YvS9UbByvEua8BKdK-3" target="x9-YvS9UbByvEua8BKdK-6">
          <mxGeometry relative="1" as="geometry" />
        </mxCell>
        <mxCell id="x9-YvS9UbByvEua8BKdK-11" style="edgeStyle=orthogonalEdgeStyle;rounded=0;orthogonalLoop=1;jettySize=auto;html=1;entryX=0;entryY=0.5;entryDx=0;entryDy=0;entryPerimeter=0;" edge="1" parent="1" source="x9-YvS9UbByvEua8BKdK-3" target="x9-YvS9UbByvEua8BKdK-10">
          <mxGeometry relative="1" as="geometry" />
        </mxCell>
        <mxCell id="x9-YvS9UbByvEua8BKdK-12" style="edgeStyle=orthogonalEdgeStyle;rounded=0;orthogonalLoop=1;jettySize=auto;html=1;entryX=0;entryY=0.5;entryDx=0;entryDy=0;entryPerimeter=0;" edge="1" parent="1" source="x9-YvS9UbByvEua8BKdK-3" target="x9-YvS9UbByvEua8BKdK-9">
          <mxGeometry relative="1" as="geometry" />
        </mxCell>
        <mxCell id="x9-YvS9UbByvEua8BKdK-3" value="" style="sketch=0;points=[[0,0,0],[0.25,0,0],[0.5,0,0],[0.75,0,0],[1,0,0],[0,1,0],[0.25,1,0],[0.5,1,0],[0.75,1,0],[1,1,0],[0,0.25,0],[0,0.5,0],[0,0.75,0],[1,0.25,0],[1,0.5,0],[1,0.75,0]];outlineConnect=0;fontColor=#232F3E;gradientColor=#945DF2;gradientDirection=north;fillColor=#5A30B5;strokeColor=#ffffff;dashed=0;verticalLabelPosition=bottom;verticalAlign=top;align=center;html=1;fontSize=12;fontStyle=0;aspect=fixed;shape=mxgraph.aws4.resourceIcon;resIcon=mxgraph.aws4.glue;" vertex="1" parent="1">
          <mxGeometry x="320" y="280" width="78" height="78" as="geometry" />
        </mxCell>
        <mxCell id="x9-YvS9UbByvEua8BKdK-5" value="Glue ETL" style="text;html=1;strokeColor=none;fillColor=none;align=center;verticalAlign=middle;whiteSpace=wrap;rounded=0;" vertex="1" parent="1">
          <mxGeometry x="329" y="370" width="60" height="30" as="geometry" />
        </mxCell>
        <mxCell id="x9-YvS9UbByvEua8BKdK-6" value="" style="sketch=0;points=[[0,0,0],[0.25,0,0],[0.5,0,0],[0.75,0,0],[1,0,0],[0,1,0],[0.25,1,0],[0.5,1,0],[0.75,1,0],[1,1,0],[0,0.25,0],[0,0.5,0],[0,0.75,0],[1,0.25,0],[1,0.5,0],[1,0.75,0]];outlineConnect=0;fontColor=#232F3E;gradientColor=#60A337;gradientDirection=north;fillColor=#277116;strokeColor=#ffffff;dashed=0;verticalLabelPosition=bottom;verticalAlign=top;align=center;html=1;fontSize=12;fontStyle=0;aspect=fixed;shape=mxgraph.aws4.resourceIcon;resIcon=mxgraph.aws4.s3;" vertex="1" parent="1">
          <mxGeometry x="570" y="280" width="78" height="78" as="geometry" />
        </mxCell>
        <mxCell id="x9-YvS9UbByvEua8BKdK-8" value="Destino" style="text;html=1;strokeColor=none;fillColor=none;align=center;verticalAlign=middle;whiteSpace=wrap;rounded=0;" vertex="1" parent="1">
          <mxGeometry x="579" y="370" width="60" height="30" as="geometry" />
        </mxCell>
        <mxCell id="x9-YvS9UbByvEua8BKdK-9" value="" style="outlineConnect=0;dashed=0;verticalLabelPosition=bottom;verticalAlign=top;align=center;html=1;shape=mxgraph.aws3.redshift;fillColor=#2E73B8;gradientColor=none;" vertex="1" parent="1">
          <mxGeometry x="571.5" y="430" width="67.5" height="75" as="geometry" />
        </mxCell>
        <mxCell id="x9-YvS9UbByvEua8BKdK-10" value="" style="outlineConnect=0;dashed=0;verticalLabelPosition=bottom;verticalAlign=top;align=center;html=1;shape=mxgraph.aws3.rds;fillColor=#2E73B8;gradientColor=none;" vertex="1" parent="1">
          <mxGeometry x="573" y="150" width="72" height="81" as="geometry" />
        </mxCell>
        <mxCell id="x9-YvS9UbByvEua8BKdK-14" style="edgeStyle=orthogonalEdgeStyle;rounded=0;orthogonalLoop=1;jettySize=auto;html=1;" edge="1" parent="1" source="x9-YvS9UbByvEua8BKdK-13" target="x9-YvS9UbByvEua8BKdK-3">
          <mxGeometry relative="1" as="geometry" />
        </mxCell>
        <mxCell id="x9-YvS9UbByvEua8BKdK-16" style="edgeStyle=orthogonalEdgeStyle;rounded=0;orthogonalLoop=1;jettySize=auto;html=1;entryX=0.5;entryY=0;entryDx=0;entryDy=0;entryPerimeter=0;" edge="1" parent="1" source="x9-YvS9UbByvEua8BKdK-13" target="x9-YvS9UbByvEua8BKdK-10">
          <mxGeometry relative="1" as="geometry" />
        </mxCell>
        <mxCell id="x9-YvS9UbByvEua8BKdK-13" value="" style="sketch=0;outlineConnect=0;fontColor=#232F3E;gradientColor=none;fillColor=#4D27AA;strokeColor=none;dashed=0;verticalLabelPosition=bottom;verticalAlign=top;align=center;html=1;fontSize=12;fontStyle=0;aspect=fixed;pointerEvents=1;shape=mxgraph.aws4.glue_data_catalog;" vertex="1" parent="1">
          <mxGeometry x="323" y="120" width="72" height="78" as="geometry" />
        </mxCell>
        <mxCell id="x9-YvS9UbByvEua8BKdK-17" value="Catalogo de Datos" style="text;html=1;strokeColor=none;fillColor=none;align=center;verticalAlign=middle;whiteSpace=wrap;rounded=0;" vertex="1" parent="1">
          <mxGeometry x="329" y="80" width="60" height="30" as="geometry" />
        </mxCell>
      </root>
    </mxGraphModel>
  </diagram>
</mxfile>
